HIERARCHY
ROOT hip
{
	OFFSET 0.000000 0.000000 0.000000 
	CHANNELS 6 Xposition Yposition Zposition Xrotation Yrotation Zrotation
	JOINT abdomen
	{
		OFFSET 0.000000 3.402643 0.000000 
		CHANNELS 3 Xrotation Yrotation Zrotation
		JOINT chest
		{
			OFFSET 0.000000 8.438565 -0.680529 
			CHANNELS 3 Xrotation Yrotation Zrotation
			JOINT neck
			{
				OFFSET 0.000000 9.885400 -0.272212 
				CHANNELS 3 Xrotation Yrotation Zrotation
				JOINT head
				{
					OFFSET 0.000000 3.130431 0.000000 
					CHANNELS 3 Xrotation Yrotation Zrotation
					End Site
					{
						OFFSET 0.000000 3.039250 0.000000 
					}
				}
			}
			JOINT rCollar
			{
				OFFSET -3.238290 6.669187 -0.816635 
				CHANNELS 3 Xrotation Yrotation Zrotation
				JOINT rShldr
				{
					OFFSET -2.515050 0.000000 0.000000 
					CHANNELS 3 Xrotation Yrotation Zrotation
					JOINT rForeArm
					{
						OFFSET -11.517700 0.000000 0.000000 
						CHANNELS 3 Xrotation Yrotation Zrotation
						JOINT rHand
						{
							OFFSET -9.026700 0.000000 0.000000 
							CHANNELS 3 Xrotation Yrotation Zrotation
							End Site
							{
								OFFSET -4.028470 0.000000 0.000000 
							}
						}
					}
				}
			}
			JOINT lCollar
			{
				OFFSET 3.238290 6.669187 -0.816635 
				CHANNELS 3 Xrotation Yrotation Zrotation
				JOINT lShldr
				{
					OFFSET 2.515050 0.000000 0.000000 
					CHANNELS 3 Xrotation Yrotation Zrotation
					JOINT lForeArm
					{
						OFFSET 11.517700 0.000000 0.000000 
						CHANNELS 3 Xrotation Yrotation Zrotation
						JOINT lHand
						{
							OFFSET 9.026700 0.000000 0.000000 
							CHANNELS 3 Xrotation Yrotation Zrotation
							End Site
							{
								OFFSET 4.028470 0.000000 0.000000 
							}
						}
					}
				}
			}
		}
	}
	JOINT rThigh
	{
		OFFSET -4.983750 -1.633274 1.361059 
		CHANNELS 3 Xrotation Yrotation Zrotation
		JOINT rShin
		{
			OFFSET 2.041588 -20.007561 0.000000 
			CHANNELS 3 Xrotation Yrotation Zrotation
			JOINT rFoot
			{
				OFFSET 0.000000 -19.190928 -1.224953 
				CHANNELS 3 Xrotation Yrotation Zrotation
				End Site
				{
					OFFSET 0.000000 -2.449906 4.627600 
				}
			}
		}
	}
	JOINT lThigh
	{
		OFFSET 4.983750 -1.633274 1.361059 
		CHANNELS 3 Xrotation Yrotation Zrotation
		JOINT lShin
		{
			OFFSET -2.041588 -20.007561 0.000000 
			CHANNELS 3 Xrotation Yrotation Zrotation
			JOINT lFoot
			{
				OFFSET 0.000000 -19.190928 -1.224953 
				CHANNELS 3 Xrotation Yrotation Zrotation
				End Site
				{
					OFFSET 0.000000 -2.449906 4.627600 
				}
			}
		}
	}
}
MOTION
Frames: 13
Frame Time: 0.033333
0.000000 39.641365 0.000000 10.324672 -3.534046 0.057937 5.972929 0.818110 2.404986 19.761940 3.658337 7.599512 -0.000001 0.000000 0.000000 -0.000001 0.000000 -0.000001 -0.000001 -0.000002 0.000001 -120.342499 43.736889 88.008141 -0.061319 -2.046633 0.000344 0.000001 0.000009 0.000005 -0.000004 -0.000002 0.000001 -140.091293 -41.949780 -124.239998 0.155344 -5.165672 0.010528 0.000003 0.000002 0.000003 -56.117470 -1.965487 1.883616 69.020309 0.443826 -0.385232 -7.013956 -4.367998 -1.682270 -53.826290 9.909224 34.079399 66.053871 -0.435911 0.359506 -1.482228 1.430853 0.588379 
-1.535451 39.758053 -0.267892 10.987810 -2.195312 -1.115902 5.887191 0.813075 2.780691 19.446211 3.776314 8.848467 0.000001 0.000000 0.000000 0.000001 0.000000 0.000000 -0.000002 -0.000002 0.000001 -120.604301 40.858860 89.963707 0.003656 0.121806 -0.000052 -0.000003 -0.000004 -0.000002 -0.000002 -0.000002 0.000001 -138.444901 -43.574711 -122.567802 0.192927 -6.404183 0.015173 0.000000 0.000000 0.000000 -56.098579 -4.186547 4.568190 67.856819 0.441094 -0.375069 -6.469124 -5.685416 -2.086960 -60.003590 18.775270 36.367611 77.243088 -0.456693 0.458412 -1.339131 0.755385 0.364296 
-2.970123 40.040829 -0.401774 11.316151 -0.501612 -2.091879 5.806339 0.828735 3.204597 19.136620 3.977020 10.249200 0.000002 0.000000 0.000000 -0.000004 0.000000 0.000000 0.000002 -0.000002 0.000001 -119.575798 38.087521 91.037956 0.082840 2.760978 -0.003861 0.000003 0.000004 0.000002 0.000002 -0.000002 0.000001 -135.350601 -44.756920 -120.615601 0.259228 -8.572761 0.025302 0.000000 0.000000 0.000000 -54.689838 -7.166941 5.907745 65.572289 0.435126 -0.355285 -6.354646 -5.902339 -2.190589 -62.635311 28.215860 36.858311 85.135063 -0.459596 0.529698 -1.058593 -0.450682 -0.091320 
-4.425200 40.310265 -0.488647 11.433465 2.063209 -3.122360 5.725962 0.864961 3.633571 18.820190 4.241917 11.660500 0.000001 0.000000 0.000001 0.000001 0.000000 0.000000 -0.000002 -0.000001 0.000002 -118.597801 35.839031 91.273163 0.119828 3.989328 -0.006881 0.000001 0.000000 -0.000001 -0.000002 -0.000001 0.000002 -131.802200 -44.785999 -118.363503 0.361744 -11.872090 0.045768 -0.000002 0.000004 0.000001 -52.715839 -11.508990 6.314708 62.717461 0.426574 -0.330918 -6.489577 -5.887608 -2.210172 -62.577030 37.235828 34.979420 89.506737 -0.456982 0.569158 -1.004069 -0.702743 -0.202611 
-5.957825 40.470879 -0.588310 11.450953 5.121972 -4.356693 5.642825 0.917799 4.019430 18.490721 4.539101 12.925450 -0.000002 0.000000 0.000000 0.000001 0.000000 0.000000 -0.000003 -0.000003 0.000001 -118.072403 34.173790 91.030891 0.116039 3.863795 -0.006527 0.000000 0.000000 0.000000 -0.000006 -0.000002 0.000001 -129.233398 -42.949760 -116.127197 0.420604 -13.730210 0.060087 0.000000 0.000000 0.000000 -50.654251 -16.314671 6.851734 59.778179 0.416506 -0.306311 -6.167306 -5.475491 -1.990078 -59.220699 43.941872 30.481890 90.056969 -0.456436 0.574096 -0.910931 -0.182381 -0.051141 
-7.563807 40.620373 -0.648493 11.368369 8.174201 -5.759339 5.556587 0.978617 4.318531 18.154610 4.824990 13.902970 -0.000001 -0.000001 0.000000 -0.000001 0.000000 0.000000 -0.000001 -0.000004 0.000000 -116.882202 32.579361 90.416634 0.126438 4.208537 -0.007501 0.000004 0.000001 -0.000003 -0.000005 -0.000003 0.000000 -128.925903 -41.435730 -115.693604 0.409011 -13.366570 0.057119 0.000001 -0.000004 0.000001 -48.206360 -20.330111 8.314079 56.356449 0.403211 -0.278358 -4.672486 -4.904206 -1.768333 -51.092690 48.152660 23.011999 85.355659 -0.459543 0.531686 -0.770998 -0.108339 -0.043458 
-9.314448 40.789455 -0.584332 11.156322 10.797182 -7.484166 5.471111 1.034083 4.501655 17.833611 5.048363 14.500040 0.000001 0.000001 0.000000 -0.000002 0.000000 0.000000 0.000004 -0.000002 0.000002 -114.695999 30.603661 89.874336 0.167162 5.555158 -0.011891 -0.000009 -0.000004 -0.000001 0.000001 -0.000001 0.000002 -130.714203 -42.198071 -118.783096 0.376924 -12.354230 0.049281 0.000000 0.000000 0.000000 -45.157520 -22.884121 11.572290 52.240891 0.385044 -0.245867 -2.093542 -5.910346 -2.132293 -38.264462 49.159698 12.459380 74.608803 -0.453546 0.434790 -3.179713 -0.497634 -0.196240 
-11.234348 40.813709 -0.373928 10.802954 13.065520 -9.318800 5.393455 1.067917 4.561685 17.558661 5.157841 14.696850 -0.000005 0.000000 -0.000002 0.000003 0.000000 0.000001 -0.000006 -0.000002 0.000000 -112.786903 28.681311 90.038338 0.192241 6.380901 -0.015069 -0.000002 0.000000 -0.000002 -0.000006 -0.000002 0.000000 -132.423599 -43.162270 -122.953102 0.364720 -11.966560 0.046449 0.000000 0.000001 0.000000 -41.971519 -23.639370 16.369310 48.244709 0.365226 -0.215637 -0.501659 -8.542883 -3.041560 -25.510630 45.611080 2.453300 61.476391 -0.421911 0.320532 -11.178420 -0.226631 -0.090510 
-13.223585 40.664257 -0.113180 10.483721 15.971462 -10.813721 5.330857 1.065099 4.515802 17.356779 5.114291 14.553430 -0.000002 -0.000001 0.000000 0.000001 0.000002 -0.000001 -0.000003 -0.000002 0.000002 -111.877899 27.606489 90.044792 0.188145 6.246238 -0.014527 0.000000 0.000000 0.000000 -0.000003 -0.000002 0.000002 -132.761597 -43.243198 -124.524002 0.361455 -11.862840 0.045697 0.000000 0.000001 0.000001 -39.850101 -22.429291 20.780130 44.697510 0.345903 -0.190019 -1.292342 -10.047870 -3.618814 -18.628500 39.880291 -2.072976 52.936779 -0.387696 0.251339 -21.438520 0.792109 0.665017 
-15.189293 40.562283 0.033534 10.731101 19.727108 -12.132931 5.287875 1.017682 4.399985 17.240061 4.906191 14.190500 0.000004 0.000002 0.000001 0.000004 0.000002 0.000001 0.000001 -0.000001 0.000002 -111.431900 27.288771 89.133423 0.191598 6.360144 -0.014982 0.000008 0.000006 0.000003 0.000001 -0.000001 0.000002 -133.470795 -43.281090 -124.563202 0.290759 -9.595187 0.030978 0.000000 0.000001 0.000000 -39.855129 -19.513149 23.693010 41.240002 0.325573 -0.166252 -2.331230 -8.439358 -3.052067 -17.548500 35.438801 -1.713070 50.762169 -0.377369 0.234594 -27.564880 2.032981 2.144430 
-17.062267 40.593037 0.007314 11.701295 23.245199 -13.567653 5.265311 0.929159 4.257776 17.203590 4.560124 13.751120 0.000001 0.000000 0.000001 0.000001 0.000000 0.000000 0.000001 -0.000002 0.000003 -111.321999 27.186890 88.301903 0.205492 6.816155 -0.016892 0.000000 0.000000 0.000000 -0.000002 -0.000001 0.000002 -134.903000 -43.355610 -124.649696 0.159317 -5.296830 0.010985 0.000000 0.000000 0.000000 -41.514679 -16.913460 25.471350 38.610130 0.309172 -0.149013 -2.142208 -5.430509 -1.956598 -19.534969 32.952091 0.498912 51.120609 -0.379114 0.237331 -30.155121 3.839146 4.757619 
-18.794817 40.690605 -0.115746 13.033931 25.637835 -14.995959 5.261192 0.814810 4.127975 17.231649 4.138483 13.359520 0.000001 0.000000 0.000000 0.000001 0.000000 0.000000 0.000004 -0.000001 0.000003 -111.916901 27.321489 88.808640 0.212585 7.049079 -0.017913 0.000000 0.000000 0.000000 0.000001 -0.000001 0.000002 -135.059601 -43.667622 -123.702499 0.086017 -2.867154 0.004095 -0.000001 -0.000001 0.000001 -43.611671 -16.338091 26.287510 37.666012 0.303087 -0.143010 -1.751765 -3.795825 -1.384395 -22.449169 32.063660 3.024756 50.748589 -0.377304 0.234499 -33.479820 5.865293 7.838135 
-20.457306 40.867046 -0.279912 14.530464 26.971043 -16.393404 5.272429 0.697489 4.035214 17.306231 3.723732 13.090380 0.000001 0.000000 0.000000 0.000001 0.000000 0.000000 0.000001 -0.000003 0.000002 -113.194099 27.995010 90.695793 0.211746 7.021692 -0.017785 -0.000001 0.000003 0.000008 -0.000002 -0.000003 0.000002 -134.495605 -45.682350 -121.842598 0.105989 -3.530702 0.005662 0.000001 -0.000001 0.000003 -46.263481 -16.096399 26.403431 37.959259 0.304988 -0.144857 -1.532839 -3.405175 -1.288521 -25.394409 31.494310 5.623153 48.878609 -0.367911 0.220428 -37.259338 6.743366 9.561866 
